# xmcd CD database file
#
# Track frame offsets:
#	150
#	14714
#	26930
#	39899
#	56125
#	70562
#	82946
#	96693
#	110597
#	138086
#	152413
#	176473
#	190305
#	213707
#	232159
#	244861
#	258338
#	272040
#	287007
#	300885
#	313258
#
# Disc length: 4408 seconds
#
# Revision: 2
# Processed by: cddbd v1.4b41PL1 Copyright (c) Steve Scherf et al.
# Submitted via: Feurio! 1.50.2ß - http://www.feurio.com
#
DISCID=2d113615
DTITLE=Charlie Parker And Friends - Charlie Parker And Friends
DYEAR=1900
DGENRE=
TTITLE0=I Can't get Started
TTITLE1=What Is This Thing Called Love
TTITLE2=Blues For Alice
TTITLE3=Just Friends
TTITLE4=April In Paris
TTITLE5=Au Private
TTITLE6=The Song Is You
TTITLE7=Confirmation
TTITLE8=Howling The Moon
TTITLE9=A Night In Tunesia
TTITLE10=Groovin' High
TTITLE11=Ornithologiy
TTITLE12=Moose The Mooche Lullaby Of Birdland
TTITLE13=Out Of Nowhere
TTITLE14=Don't Blame Me
TTITLE15=Swapple From The Apple
TTITLE16=Deluxbrity
TTITLE17=Stomping At The Savoy
TTITLE18=Take The "A" Train
TTITLE19=Night And Day
TTITLE20=A Fine Romance
EXTD=Eigentümer Daniel Perlick
EXTT0=
EXTT1=
EXTT2=
EXTT3=
EXTT4=
EXTT5=
EXTT6=
EXTT7=
EXTT8=
EXTT9=
EXTT10=
EXTT11=
EXTT12=
EXTT13=
EXTT14=
EXTT15=
EXTT16=
EXTT17=
EXTT18=
EXTT19=
EXTT20=
PLAYORDER=
